<?xml version="1.0" encoding="UTF-8"?>
<svg width="16px" height="16px" viewBox="0 0 16 16" version="1.1" xmlns="http://www.w3.org/2000/svg" xmlns:xlink="http://www.w3.org/1999/xlink">
    <title>icon-status</title>
    <g id="Page-1" stroke="none" stroke-width="1" fill="none" fill-rule="evenodd">
        <g id="FE---Takehome-Test---Hover-&amp;-Input-State" transform="translate(-823, -229)">
            <g id="icon-status" transform="translate(823, 229)">
                <polygon id="Path" points="0 0 16 0 16 16 0 16"></polygon>
                <path d="M5.70666667,2.46 C4.97872101,2.76132454 4.31724568,3.2030632 3.76,3.76" id="Path" stroke="#687196" stroke-linecap="round" stroke-linejoin="round"></path>
                <path d="M2.46,5.70666667 C2.15770485,6.43353217 2.00140205,7.21278094 2,8" id="Path" stroke="#687196" stroke-linecap="round" stroke-linejoin="round"></path>
                <path d="M2.46,10.2933333 C2.76132454,11.021279 3.2030632,11.6827543 3.76,12.24" id="Path" stroke="#687196" stroke-linecap="round" stroke-linejoin="round"></path>
                <path d="M5.70666667,13.54 C6.43353217,13.8422951 7.21278094,13.998598 8,14" id="Path" stroke="#687196" stroke-linecap="round" stroke-linejoin="round"></path>
                <path d="M10.2933333,13.54 C11.021279,13.2386755 11.6827543,12.7969368 12.24,12.24" id="Path" stroke="#687196" stroke-linecap="round" stroke-linejoin="round"></path>
                <path d="M13.54,10.2933333 C13.8422951,9.56646783 13.998598,8.78721906 14,8" id="Path" stroke="#687196" stroke-linecap="round" stroke-linejoin="round"></path>
                <path d="M13.54,5.70666667 C13.2386755,4.97872101 12.7969368,4.31724568 12.24,3.76" id="Path" stroke="#687196" stroke-linecap="round" stroke-linejoin="round"></path>
                <path d="M10.2933333,2.46 C9.56646783,2.15770485 8.78721906,2.00140205 8,2" id="Path" stroke="#687196" stroke-linecap="round" stroke-linejoin="round"></path>
            </g>
        </g>
    </g>
</svg>