<?xml version="1.0" encoding="UTF-8"?>
<svg width="16px" height="16px" viewBox="0 0 16 16" version="1.1" xmlns="http://www.w3.org/2000/svg" xmlns:xlink="http://www.w3.org/1999/xlink">
    <title>icon-coowner</title>
    <g id="Page-1" stroke="none" stroke-width="1" fill="none" fill-rule="evenodd">
        <g id="FE---Takehome-Test---Hover-&amp;-Input-State" transform="translate(-873, -285)">
            <g id="icon-coowner" transform="translate(873, 285)">
                <polygon id="Path" points="0 0 16 0 16 16 0 16"></polygon>
                <path d="M3.33333333,4.66666667 C3.33333333,6.139426 4.52724067,7.33333333 6,7.33333333 C7.47275933,7.33333333 8.66666667,6.139426 8.66666667,4.66666667 C8.66666667,3.19390733 7.47275933,2 6,2 C4.52724067,2 3.33333333,3.19390733 3.33333333,4.66666667" id="Path" stroke="#687196" stroke-linecap="round" stroke-linejoin="round"></path>
                <path d="M2,14 L2,12.6666667 C2,11.1939073 3.19390733,10 4.66666667,10 L7.33333333,10 C8.80609267,10 10,11.1939073 10,12.6666667 L10,14" id="Path" stroke="#687196" stroke-linecap="round" stroke-linejoin="round"></path>
                <path d="M10.6666667,2.08666667 C11.8466099,2.38877986 12.6718955,3.4519941 12.6718955,4.67 C12.6718955,5.8880059 11.8466099,6.95122014 10.6666667,7.25333333" id="Path" stroke="#687196" stroke-linecap="round" stroke-linejoin="round"></path>
                <path d="M14,14 L14,12.6666667 C13.9930406,11.4563806 13.171879,10.4025565 12,10.1" id="Path" stroke="#687196" stroke-linecap="round" stroke-linejoin="round"></path>
            </g>
        </g>
    </g>
</svg>