<?xml version="1.0" encoding="UTF-8"?>
<svg width="14px" height="13px" viewBox="0 0 14 13" version="1.1" xmlns="http://www.w3.org/2000/svg" xmlns:xlink="http://www.w3.org/1999/xlink">
    <title>icon-activity</title>
    <g id="Page-1" stroke="none" stroke-width="1" fill="none" fill-rule="evenodd" stroke-linecap="round" stroke-linejoin="round">
        <g id="FE---Takehome-Test---Hover-&amp;-Input-State" transform="translate(-963, -105)" stroke="#687196">
            <g id="icon-activity" transform="translate(964, 105.5)">
                <line x1="0" y1="0.363636364" x2="4.36363636" y2="0.363636364" id="Path"></line>
                <line x1="7.27272727" y1="0.363636364" x2="11.6363636" y2="0.363636364" id="Path"></line>
                <path d="M0,4.72727273 C0,3.92394945 0.651222182,3.27272727 1.45454545,3.27272727 L2.90909091,3.27272727 C3.71241418,3.27272727 4.36363636,3.92394945 4.36363636,4.72727273 L4.36363636,10.5454545 C4.36363636,11.3487778 3.71241418,12 2.90909091,12 L1.45454545,12 C0.651222182,12 0,11.3487778 0,10.5454545 L0,4.72727273 Z" id="Path" fill="#687196"></path>
                <path d="M7.27272727,4.72727273 C7.27272727,3.92394945 7.92394945,3.27272727 8.72727273,3.27272727 L10.1818182,3.27272727 C10.9851415,3.27272727 11.6363636,3.92394945 11.6363636,4.72727273 L11.6363636,6.18181818 C11.6363636,6.98514145 10.9851415,7.63636364 10.1818182,7.63636364 L8.72727273,7.63636364 C7.92394945,7.63636364 7.27272727,6.98514145 7.27272727,6.18181818 L7.27272727,4.72727273 Z" id="Path" fill="#687196"></path>
            </g>
        </g>
    </g>
</svg>